<?xml version="1.0" encoding="UTF-8"?><svg id="Layer_2" xmlns="http://www.w3.org/2000/svg" viewBox="0 0 1028.92 1024"><defs><style>.cls-1{fill:#9aa5ac;fill-rule:evenodd;}</style></defs><g id="Layer_1-2"><path id="WhatsApp-Logo" class="cls-1" d="M616.59,277.41c-6.38,12.74-37.19,75.37-41.45,87.05-4.25,11.68-6.37,20.17,6.38,28.66,12.75,8.49,41.45,32.91,49.95,40.34,8.5,7.43,9.57,14.86,3.19,27.6-6.37,12.74-19.83,53.79-63.23,102.45-33.78,37.87-75.5,63.44-88.25,70.87-12.75,7.43-19.65.79-26-5.58-5.71-5.73-14.88-12.74-22.32-19.11-7.44-6.37-12.75-8.49-21.25-12.74-8.5-4.25-15.94-2.12-22.32,1.06-6.38,3.18-69.08,28.66-94.6,39.28-24.84,10.34-21.47,20.84-21.87,28.66-.37,7.42-.45,15.93-.45,24.42s3.19,22.3,15.94,33.97c12.75,11.68,43.58,44.59,106.28,44.59,62.71,0,123.28-45.65,131.79-52.02,8.5-6.37,137.18-89.83,192.36-217.63,13.13-30.39,20.97-54.12,26.84-72.62,9.7-30.52,8.33-58.29,5.05-80.24-3.65-24.48-30.82-75.37-60.57-85.99-29.76-10.61-55.27-10.61-60.58-7.43-5.31,3.18-8.5,11.68-14.88,24.42M933.97,509.86v.17c-.03,76.04-20.46,150.63-59.07,215.69l-9.18,15.48,42.07,160.39-156.38-42.81-16.03,10.07c-67.47,42.42-145.45,64.83-225.53,64.79-233.65-.09-423.74-190.2-423.74-423.95.04-113.19,44.18-219.59,124.28-299.6,80.1-80.01,186.57-124.05,299.8-124,233.67.1,423.78,190.2,423.78,423.77M149.53,149.19C53.15,245.46.06,373.47,0,509.86c0,281.03,228.71,509.75,509.82,509.86,89.86.04,177.57-23.44,254.9-68.06l264.2,72.33-70.9-270.28c40.62-74.47,62.03-158.32,62.06-243.65v-.21C1020.08,228.86,791.35.12,510.23,0,374-.05,245.9,52.93,149.53,149.19"/></g></svg>