<?xml version="1.0" encoding="UTF-8"?><svg id="Layer_2" xmlns="http://www.w3.org/2000/svg" viewBox="0 0 40 40"><defs><style>.cls-1{fill:#9aa5ac;}</style></defs><g id="Layer_1-2"><path class="cls-1" d="M20,2c9.92,0,18,8.07,18,18s-8.08,18-18,18S2,29.92,2,20,10.07,2,20,2M20,0C8.95,0,0,8.95,0,20s8.95,20,20,20,20-8.95,20-20S31.05,0,20,0h0Z"/><path class="cls-1" d="M25.22,30.41c-1.95.94-3.76,1.27-6.08,1.27-5.54,0-10.34-4-10.34-10.55s4.9-12.83,12.42-12.83c5.91,0,9.98,4.1,9.98,9.7,0,4.97-2.79,7.99-6.18,7.99-1.48,0-2.65-.84-2.72-2.75h-.1c-1.11,1.85-2.62,2.75-4.5,2.75-2.08,0-3.73-1.61-3.73-4.3,0-4.13,3.16-7.89,7.93-7.89,1.48,0,2.96.34,3.83.77l-1.08,6.14c-.4,2.25-.1,3.29.91,3.29,1.58.07,3.42-1.98,3.42-5.84,0-4.63-2.85-8.02-8.06-8.02s-9.84,4.13-9.84,10.75c0,5.61,3.63,8.9,8.6,8.9,1.81,0,3.63-.37,4.97-1.11l.57,1.71ZM22.77,16.27c-.34-.1-.77-.2-1.34-.2-2.55,0-4.57,2.48-4.57,5.34,0,1.38.64,2.32,1.88,2.32,1.58,0,3.09-2.02,3.43-4l.6-3.46Z"/></g></svg>