<?xml version="1.0" encoding="UTF-8"?><svg id="Layer_2" xmlns="http://www.w3.org/2000/svg" viewBox="0 0 128 128"><defs><style>.cls-1{fill:#fff;}.cls-2{fill:#9aa5ac;}</style></defs><g id="Layer_1-2"><circle class="cls-2" cx="64" cy="64" r="64"/><path class="cls-1" d="M64,38c-8.8,0-16,7.2-16,16s7.2,16,16,16,16-7.2,16-16-7.2-16-16-16Z"/><path class="cls-1" d="M64,24c-16.6,0-30,13.4-30,30,0,15,24.6,43.8,29.3,49.1.4.5,1.1.5,1.5,0,4.6-5.3,29.2-34.1,29.2-49.1,0-16.6-13.4-30-30-30ZM64,74c-11,0-20-9-20-20s9-20,20-20,20,9,20,20-9,20-20,20Z"/></g></svg>